<mxfile host="app.diagrams.net" modified="2024-01-28T16:14:02.360Z" agent="Mozilla/5.0 (Windows NT 10.0; Win64; x64) AppleWebKit/537.36 (KHTML, like Gecko) Chrome/120.0.0.0 Safari/537.36" version="22.0.0" etag="Ga6SNox892AZUz6-GA4Y" type="github">
  <diagram name="PÃ¡gina-1" id="gg9P_8fpCsU8wbOknAsT">
    <mxGraphModel>
      <root>
        <mxCell id="0" />
        <mxCell id="1" parent="0" />
      </root>
    </mxGraphModel>
  </diagram>
</mxfile>
